<svg width="137" height="511" viewBox="0 0 137 511" fill="none" xmlns="http://www.w3.org/2000/svg">
<path d="M15.2202 509.944C35.8402 512.184 54.3585 497.119 56.5814 476.296C56.8126 474.139 56.8492 472.008 56.7244 469.913C57.1678 463.331 51.5086 386.781 96.6033 365.249C118.022 354.461 133.732 333.24 136.489 307.427C138.914 284.72 130.803 263.323 116.122 248.195L88.2575 215.858C74.5091 200.536 65.7434 181.324 63.1432 160.81L55.5109 100.595C55.2296 96.6197 54.7269 92.6983 54.0222 88.838L54.0034 88.6927L53.9954 88.6937C45.6201 43.1748 8.56873 6.63813 -39.3544 1.43123C-97.8648 -4.92407 -150.411 37.8236 -156.721 96.9133C-157.348 102.785 -157.488 108.597 -157.185 114.311L-158.765 173.441C-159.63 205.824 -175.813 235.837 -202.275 254.153C-209.374 259.067 -219.355 264.575 -221.21 265.208C-221.224 265.212 -221.231 265.256 -221.242 265.276C-249.158 278.28 -269.812 305.331 -273.348 338.441C-278.701 388.569 -242.802 433.576 -193.167 438.969C-192.49 439.042 -92.6593 446.115 -92.6593 446.115C-92.5146 446.127 -92.3699 446.138 -92.2252 446.15C-68.4166 448.07 -46.1227 458.717 -29.3737 475.909L-8.4678 497.821C-2.51265 504.407 5.7488 508.915 15.2202 509.944Z" fill="url(#paint0_linear_121_519)"/>
<defs>
<linearGradient id="paint0_linear_121_519" x1="-13.5673" y1="654.71" x2="-292.289" y2="250.639" gradientUnits="userSpaceOnUse">
<stop stop-color="#FE5300"/>
<stop offset="1" stop-color="#FAA277"/>
</linearGradient>
</defs>
</svg>
