<svg width="129" height="112" viewBox="0 0 129 112" fill="none" xmlns="http://www.w3.org/2000/svg">
<mask id="mask0_105_1670" style="mask-type:alpha" maskUnits="userSpaceOnUse" x="0" y="0" width="11" height="11">
<path d="M5.09199 10.153C7.90423 10.153 10.184 7.88014 10.184 5.07648C10.184 2.27281 7.90423 0 5.09199 0C2.27976 0 0 2.27281 0 5.07648C0 7.88014 2.27976 10.153 5.09199 10.153Z" fill="#FF671C"/>
</mask>
<g mask="url(#mask0_105_1670)">
<path d="M5.09199 10.153C7.90423 10.153 10.184 7.88014 10.184 5.07648C10.184 2.27281 7.90423 0 5.09199 0C2.27976 0 0 2.27281 0 5.07648C0 7.88014 2.27976 10.153 5.09199 10.153Z" fill="#FF671C"/>
</g>
<mask id="mask1_105_1670" style="mask-type:alpha" maskUnits="userSpaceOnUse" x="29" y="0" width="11" height="11">
<path d="M34.5822 10.153C37.3945 10.153 39.6742 7.88014 39.6742 5.07648C39.6742 2.27281 37.3945 0 34.5822 0C31.77 0 29.4902 2.27281 29.4902 5.07648C29.4902 7.88014 31.77 10.153 34.5822 10.153Z" fill="#FF671C"/>
</mask>
<g mask="url(#mask1_105_1670)">
<path d="M34.5832 10.153C37.3954 10.153 39.6752 7.88014 39.6752 5.07648C39.6752 2.27281 37.3954 0 34.5832 0C31.771 0 29.4912 2.27281 29.4912 5.07648C29.4912 7.88014 31.771 10.153 34.5832 10.153Z" fill="#FF671C"/>
</g>
<mask id="mask2_105_1670" style="mask-type:alpha" maskUnits="userSpaceOnUse" x="58" y="0" width="12" height="11">
<path d="M64.0754 10.153C66.8876 10.153 69.1674 7.88014 69.1674 5.07648C69.1674 2.27281 66.8876 0 64.0754 0C61.2632 0 58.9834 2.27281 58.9834 5.07648C58.9834 7.88014 61.2632 10.153 64.0754 10.153Z" fill="#FF671C"/>
</mask>
<g mask="url(#mask2_105_1670)">
<path d="M64.0754 10.153C66.8876 10.153 69.1674 7.88014 69.1674 5.07648C69.1674 2.27281 66.8876 0 64.0754 0C61.2632 0 58.9834 2.27281 58.9834 5.07648C58.9834 7.88014 61.2632 10.153 64.0754 10.153Z" fill="#FF671C"/>
</g>
<mask id="mask3_105_1670" style="mask-type:alpha" maskUnits="userSpaceOnUse" x="88" y="0" width="11" height="11">
<path d="M93.5666 10.153C96.3789 10.153 98.6586 7.88014 98.6586 5.07648C98.6586 2.27281 96.3789 0 93.5666 0C90.7544 0 88.4746 2.27281 88.4746 5.07648C88.4746 7.88014 90.7544 10.153 93.5666 10.153Z" fill="#FF671C"/>
</mask>
<g mask="url(#mask3_105_1670)">
<path d="M93.5656 10.153C96.3779 10.153 98.6576 7.88014 98.6576 5.07648C98.6576 2.27281 96.3779 0 93.5656 0C90.7534 0 88.4736 2.27281 88.4736 5.07648C88.4736 7.88014 90.7534 10.153 93.5656 10.153Z" fill="#FF671C"/>
</g>
<mask id="mask4_105_1670" style="mask-type:alpha" maskUnits="userSpaceOnUse" x="117" y="0" width="12" height="11">
<path d="M123.058 10.153C125.87 10.153 128.15 7.88014 128.15 5.07648C128.15 2.27281 125.87 0 123.058 0C120.246 0 117.966 2.27281 117.966 5.07648C117.966 7.88014 120.246 10.153 123.058 10.153Z" fill="#FF671C"/>
</mask>
<g mask="url(#mask4_105_1670)">
<path d="M123.057 10.153C125.869 10.153 128.149 7.88014 128.149 5.07648C128.149 2.27281 125.869 0 123.057 0C120.245 0 117.965 2.27281 117.965 5.07648C117.965 7.88014 120.245 10.153 123.057 10.153Z" fill="#FF671C"/>
</g>
<mask id="mask5_105_1670" style="mask-type:alpha" maskUnits="userSpaceOnUse" x="0" y="25" width="11" height="11">
<path d="M5.09199 35.6412C7.90423 35.6412 10.184 33.3684 10.184 30.5647C10.184 27.7611 7.90423 25.4883 5.09199 25.4883C2.27976 25.4883 0 27.7611 0 30.5647C0 33.3684 2.27976 35.6412 5.09199 35.6412Z" fill="#FF671C"/>
</mask>
<g mask="url(#mask5_105_1670)">
<path d="M5.09199 35.6412C7.90423 35.6412 10.184 33.3684 10.184 30.5647C10.184 27.7611 7.90423 25.4883 5.09199 25.4883C2.27976 25.4883 0 27.7611 0 30.5647C0 33.3684 2.27976 35.6412 5.09199 35.6412Z" fill="#FF671C"/>
</g>
<mask id="mask6_105_1670" style="mask-type:alpha" maskUnits="userSpaceOnUse" x="29" y="25" width="11" height="11">
<path d="M34.5822 35.6412C37.3945 35.6412 39.6742 33.3684 39.6742 30.5647C39.6742 27.7611 37.3945 25.4883 34.5822 25.4883C31.77 25.4883 29.4902 27.7611 29.4902 30.5647C29.4902 33.3684 31.77 35.6412 34.5822 35.6412Z" fill="#FF671C"/>
</mask>
<g mask="url(#mask6_105_1670)">
<path d="M34.5832 35.641C37.3954 35.641 39.6752 33.3682 39.6752 30.5645C39.6752 27.7608 37.3954 25.488 34.5832 25.488C31.771 25.488 29.4912 27.7608 29.4912 30.5645C29.4912 33.3682 31.771 35.641 34.5832 35.641Z" fill="#FF671C"/>
</g>
<mask id="mask7_105_1670" style="mask-type:alpha" maskUnits="userSpaceOnUse" x="58" y="25" width="12" height="11">
<path d="M64.0754 35.6412C66.8876 35.6412 69.1674 33.3684 69.1674 30.5647C69.1674 27.7611 66.8876 25.4883 64.0754 25.4883C61.2632 25.4883 58.9834 27.7611 58.9834 30.5647C58.9834 33.3684 61.2632 35.6412 64.0754 35.6412Z" fill="#FF671C"/>
</mask>
<g mask="url(#mask7_105_1670)">
<path d="M64.0754 35.6412C66.8876 35.6412 69.1674 33.3684 69.1674 30.5647C69.1674 27.7611 66.8876 25.4883 64.0754 25.4883C61.2632 25.4883 58.9834 27.7611 58.9834 30.5647C58.9834 33.3684 61.2632 35.6412 64.0754 35.6412Z" fill="#FF671C"/>
</g>
<mask id="mask8_105_1670" style="mask-type:alpha" maskUnits="userSpaceOnUse" x="88" y="25" width="11" height="11">
<path d="M93.5666 35.6412C96.3789 35.6412 98.6586 33.3684 98.6586 30.5647C98.6586 27.7611 96.3789 25.4883 93.5666 25.4883C90.7544 25.4883 88.4746 27.7611 88.4746 30.5647C88.4746 33.3684 90.7544 35.6412 93.5666 35.6412Z" fill="#FF671C"/>
</mask>
<g mask="url(#mask8_105_1670)">
<path d="M93.5656 35.6412C96.3779 35.6412 98.6576 33.3684 98.6576 30.5647C98.6576 27.7611 96.3779 25.4883 93.5656 25.4883C90.7534 25.4883 88.4736 27.7611 88.4736 30.5647C88.4736 33.3684 90.7534 35.6412 93.5656 35.6412Z" fill="#FF671C"/>
</g>
<mask id="mask9_105_1670" style="mask-type:alpha" maskUnits="userSpaceOnUse" x="117" y="25" width="12" height="11">
<path d="M123.058 35.6412C125.87 35.6412 128.15 33.3684 128.15 30.5647C128.15 27.7611 125.87 25.4883 123.058 25.4883C120.246 25.4883 117.966 27.7611 117.966 30.5647C117.966 33.3684 120.246 35.6412 123.058 35.6412Z" fill="#FF671C"/>
</mask>
<g mask="url(#mask9_105_1670)">
<path d="M123.057 35.6412C125.869 35.6412 128.149 33.3684 128.149 30.5647C128.149 27.7611 125.869 25.4883 123.057 25.4883C120.245 25.4883 117.965 27.7611 117.965 30.5647C117.965 33.3684 120.245 35.6412 123.057 35.6412Z" fill="#FF671C"/>
</g>
<mask id="mask10_105_1670" style="mask-type:alpha" maskUnits="userSpaceOnUse" x="0" y="50" width="11" height="12">
<path d="M5.09199 61.0766C7.90423 61.0766 10.184 58.8038 10.184 56.0001C10.184 53.1964 7.90423 50.9236 5.09199 50.9236C2.27976 50.9236 0 53.1964 0 56.0001C0 58.8038 2.27976 61.0766 5.09199 61.0766Z" fill="#FF671C"/>
</mask>
<g mask="url(#mask10_105_1670)">
<path d="M5.09199 61.0766C7.90423 61.0766 10.184 58.8038 10.184 56.0001C10.184 53.1964 7.90423 50.9236 5.09199 50.9236C2.27976 50.9236 0 53.1964 0 56.0001C0 58.8038 2.27976 61.0766 5.09199 61.0766Z" fill="#FF671C"/>
</g>
<mask id="mask11_105_1670" style="mask-type:alpha" maskUnits="userSpaceOnUse" x="29" y="50" width="11" height="12">
<path d="M34.5822 61.0761C37.3945 61.0761 39.6742 58.8033 39.6742 55.9996C39.6742 53.1959 37.3945 50.9231 34.5822 50.9231C31.77 50.9231 29.4902 53.1959 29.4902 55.9996C29.4902 58.8033 31.77 61.0761 34.5822 61.0761Z" fill="#FF671C"/>
</mask>
<g mask="url(#mask11_105_1670)">
<path d="M34.5832 61.0766C37.3954 61.0766 39.6752 58.8038 39.6752 56.0001C39.6752 53.1964 37.3954 50.9236 34.5832 50.9236C31.771 50.9236 29.4912 53.1964 29.4912 56.0001C29.4912 58.8038 31.771 61.0766 34.5832 61.0766Z" fill="#FF671C"/>
</g>
<mask id="mask12_105_1670" style="mask-type:alpha" maskUnits="userSpaceOnUse" x="58" y="50" width="12" height="12">
<path d="M64.0754 61.0761C66.8876 61.0761 69.1674 58.8033 69.1674 55.9996C69.1674 53.1959 66.8876 50.9231 64.0754 50.9231C61.2632 50.9231 58.9834 53.1959 58.9834 55.9996C58.9834 58.8033 61.2632 61.0761 64.0754 61.0761Z" fill="#FF671C"/>
</mask>
<g mask="url(#mask12_105_1670)">
<path d="M64.0754 61.0764C66.8876 61.0764 69.1674 58.8035 69.1674 55.9998C69.1674 53.1962 66.8876 50.9233 64.0754 50.9233C61.2632 50.9233 58.9834 53.1962 58.9834 55.9998C58.9834 58.8035 61.2632 61.0764 64.0754 61.0764Z" fill="#FF671C"/>
</g>
<mask id="mask13_105_1670" style="mask-type:alpha" maskUnits="userSpaceOnUse" x="88" y="50" width="11" height="12">
<path d="M93.5666 61.0761C96.3789 61.0761 98.6586 58.8033 98.6586 55.9996C98.6586 53.1959 96.3789 50.9231 93.5666 50.9231C90.7544 50.9231 88.4746 53.1959 88.4746 55.9996C88.4746 58.8033 90.7544 61.0761 93.5666 61.0761Z" fill="#FF671C"/>
</mask>
<g mask="url(#mask13_105_1670)">
<path d="M93.5656 61.0764C96.3779 61.0764 98.6576 58.8035 98.6576 55.9998C98.6576 53.1962 96.3779 50.9233 93.5656 50.9233C90.7534 50.9233 88.4736 53.1962 88.4736 55.9998C88.4736 58.8035 90.7534 61.0764 93.5656 61.0764Z" fill="#FF671C"/>
</g>
<mask id="mask14_105_1670" style="mask-type:alpha" maskUnits="userSpaceOnUse" x="117" y="50" width="12" height="12">
<path d="M123.058 61.0768C125.87 61.0768 128.15 58.804 128.15 56.0003C128.15 53.1967 125.87 50.9238 123.058 50.9238C120.246 50.9238 117.966 53.1967 117.966 56.0003C117.966 58.804 120.246 61.0768 123.058 61.0768Z" fill="#FF671C"/>
</mask>
<g mask="url(#mask14_105_1670)">
<path d="M123.057 61.0766C125.869 61.0766 128.149 58.8038 128.149 56.0001C128.149 53.1964 125.869 50.9236 123.057 50.9236C120.245 50.9236 117.965 53.1964 117.965 56.0001C117.965 58.8038 120.245 61.0766 123.057 61.0766Z" fill="#FF671C"/>
</g>
<mask id="mask15_105_1670" style="mask-type:alpha" maskUnits="userSpaceOnUse" x="0" y="76" width="11" height="11">
<path d="M5.09199 86.5649C7.90423 86.5649 10.184 84.292 10.184 81.4883C10.184 78.6847 7.90423 76.4119 5.09199 76.4119C2.27976 76.4119 0 78.6847 0 81.4883C0 84.292 2.27976 86.5649 5.09199 86.5649Z" fill="#FF671C"/>
</mask>
<g mask="url(#mask15_105_1670)">
<path d="M5.09199 86.5649C7.90423 86.5649 10.184 84.292 10.184 81.4883C10.184 78.6847 7.90423 76.4119 5.09199 76.4119C2.27976 76.4119 0 78.6847 0 81.4883C0 84.292 2.27976 86.5649 5.09199 86.5649Z" fill="#FF671C"/>
</g>
<mask id="mask16_105_1670" style="mask-type:alpha" maskUnits="userSpaceOnUse" x="29" y="76" width="11" height="11">
<path d="M34.5822 86.5644C37.3945 86.5644 39.6742 84.2915 39.6742 81.4879C39.6742 78.6842 37.3945 76.4114 34.5822 76.4114C31.77 76.4114 29.4902 78.6842 29.4902 81.4879C29.4902 84.2915 31.77 86.5644 34.5822 86.5644Z" fill="#FF671C"/>
</mask>
<g mask="url(#mask16_105_1670)">
<path d="M34.5832 86.5649C37.3954 86.5649 39.6752 84.292 39.6752 81.4883C39.6752 78.6847 37.3954 76.4119 34.5832 76.4119C31.771 76.4119 29.4912 78.6847 29.4912 81.4883C29.4912 84.292 31.771 86.5649 34.5832 86.5649Z" fill="#FF671C"/>
</g>
<mask id="mask17_105_1670" style="mask-type:alpha" maskUnits="userSpaceOnUse" x="58" y="76" width="12" height="11">
<path d="M64.0754 86.5644C66.8876 86.5644 69.1674 84.2915 69.1674 81.4879C69.1674 78.6842 66.8876 76.4114 64.0754 76.4114C61.2632 76.4114 58.9834 78.6842 58.9834 81.4879C58.9834 84.2915 61.2632 86.5644 64.0754 86.5644Z" fill="#FF671C"/>
</mask>
<g mask="url(#mask17_105_1670)">
<path d="M64.0754 86.5646C66.8876 86.5646 69.1674 84.2918 69.1674 81.4881C69.1674 78.6844 66.8876 76.4116 64.0754 76.4116C61.2632 76.4116 58.9834 78.6844 58.9834 81.4881C58.9834 84.2918 61.2632 86.5646 64.0754 86.5646Z" fill="#FF671C"/>
</g>
<mask id="mask18_105_1670" style="mask-type:alpha" maskUnits="userSpaceOnUse" x="88" y="76" width="11" height="11">
<path d="M93.5666 86.5644C96.3789 86.5644 98.6586 84.2915 98.6586 81.4879C98.6586 78.6842 96.3789 76.4114 93.5666 76.4114C90.7544 76.4114 88.4746 78.6842 88.4746 81.4879C88.4746 84.2915 90.7544 86.5644 93.5666 86.5644Z" fill="#FF671C"/>
</mask>
<g mask="url(#mask18_105_1670)">
<path d="M93.5656 86.5646C96.3779 86.5646 98.6576 84.2918 98.6576 81.4881C98.6576 78.6844 96.3779 76.4116 93.5656 76.4116C90.7534 76.4116 88.4736 78.6844 88.4736 81.4881C88.4736 84.2918 90.7534 86.5646 93.5656 86.5646Z" fill="#FF671C"/>
</g>
<mask id="mask19_105_1670" style="mask-type:alpha" maskUnits="userSpaceOnUse" x="117" y="76" width="12" height="11">
<path d="M123.058 86.5646C125.87 86.5646 128.15 84.2918 128.15 81.4881C128.15 78.6844 125.87 76.4116 123.058 76.4116C120.246 76.4116 117.966 78.6844 117.966 81.4881C117.966 84.2918 120.246 86.5646 123.058 86.5646Z" fill="#FF671C"/>
</mask>
<g mask="url(#mask19_105_1670)">
<path d="M123.057 86.5646C125.869 86.5646 128.149 84.2918 128.149 81.4881C128.149 78.6844 125.869 76.4116 123.057 76.4116C120.245 76.4116 117.965 78.6844 117.965 81.4881C117.965 84.2918 120.245 86.5646 123.057 86.5646Z" fill="#FF671C"/>
</g>
<mask id="mask20_105_1670" style="mask-type:alpha" maskUnits="userSpaceOnUse" x="0" y="101" width="11" height="12">
<path d="M5.09199 112C7.90423 112 10.184 109.727 10.184 106.924C10.184 104.12 7.90423 101.847 5.09199 101.847C2.27976 101.847 0 104.12 0 106.924C0 109.727 2.27976 112 5.09199 112Z" fill="#FF671C"/>
</mask>
<g mask="url(#mask20_105_1670)">
<path d="M5.09199 112C7.90423 112 10.184 109.727 10.184 106.924C10.184 104.12 7.90423 101.847 5.09199 101.847C2.27976 101.847 0 104.12 0 106.924C0 109.727 2.27976 112 5.09199 112Z" fill="#FF671C"/>
</g>
<mask id="mask21_105_1670" style="mask-type:alpha" maskUnits="userSpaceOnUse" x="29" y="101" width="11" height="12">
<path d="M34.5822 112C37.3945 112 39.6742 109.728 39.6742 106.924C39.6742 104.12 37.3945 101.847 34.5822 101.847C31.77 101.847 29.4902 104.12 29.4902 106.924C29.4902 109.728 31.77 112 34.5822 112Z" fill="#FF671C"/>
</mask>
<g mask="url(#mask21_105_1670)">
<path d="M34.5832 112C37.3954 112 39.6752 109.727 39.6752 106.924C39.6752 104.12 37.3954 101.847 34.5832 101.847C31.771 101.847 29.4912 104.12 29.4912 106.924C29.4912 109.727 31.771 112 34.5832 112Z" fill="#FF671C"/>
</g>
<mask id="mask22_105_1670" style="mask-type:alpha" maskUnits="userSpaceOnUse" x="58" y="101" width="12" height="12">
<path d="M64.0754 112C66.8876 112 69.1674 109.728 69.1674 106.924C69.1674 104.12 66.8876 101.847 64.0754 101.847C61.2632 101.847 58.9834 104.12 58.9834 106.924C58.9834 109.728 61.2632 112 64.0754 112Z" fill="#FF671C"/>
</mask>
<g mask="url(#mask22_105_1670)">
<path d="M64.0754 112C66.8876 112 69.1674 109.728 69.1674 106.924C69.1674 104.12 66.8876 101.847 64.0754 101.847C61.2632 101.847 58.9834 104.12 58.9834 106.924C58.9834 109.728 61.2632 112 64.0754 112Z" fill="#FF671C"/>
</g>
<mask id="mask23_105_1670" style="mask-type:alpha" maskUnits="userSpaceOnUse" x="88" y="101" width="11" height="12">
<path d="M93.5666 112C96.3789 112 98.6586 109.728 98.6586 106.924C98.6586 104.12 96.3789 101.847 93.5666 101.847C90.7544 101.847 88.4746 104.12 88.4746 106.924C88.4746 109.728 90.7544 112 93.5666 112Z" fill="#FF671C"/>
</mask>
<g mask="url(#mask23_105_1670)">
<path d="M93.5656 112C96.3779 112 98.6576 109.728 98.6576 106.924C98.6576 104.12 96.3779 101.847 93.5656 101.847C90.7534 101.847 88.4736 104.12 88.4736 106.924C88.4736 109.728 90.7534 112 93.5656 112Z" fill="#FF671C"/>
</g>
<mask id="mask24_105_1670" style="mask-type:alpha" maskUnits="userSpaceOnUse" x="117" y="101" width="12" height="12">
<path d="M123.058 112C125.87 112 128.15 109.727 128.15 106.924C128.15 104.12 125.87 101.847 123.058 101.847C120.246 101.847 117.966 104.12 117.966 106.924C117.966 109.727 120.246 112 123.058 112Z" fill="#FF671C"/>
</mask>
<g mask="url(#mask24_105_1670)">
<path d="M123.057 112C125.869 112 128.149 109.727 128.149 106.924C128.149 104.12 125.869 101.847 123.057 101.847C120.245 101.847 117.965 104.12 117.965 106.924C117.965 109.727 120.245 112 123.057 112Z" fill="#FF671C"/>
</g>
</svg>
