<svg width="31" height="25" viewBox="0 0 31 25" fill="none" xmlns="http://www.w3.org/2000/svg">
<path d="M12.835 12.0287L1.18375 3.75769C2.4675 1.69394 4.775 0.3125 7.375 0.3125H23.625C26.225 0.3125 28.5162 1.67767 29.8162 3.74142L18.1975 11.9962C16.5562 13.0849 14.4437 13.0849 12.835 12.0287ZM30.905 6.97516L20.05 14.6776C18.6525 15.6039 17.06 16.0587 15.4837 16.0587C13.9237 16.0587 12.3637 15.6039 10.9987 14.6939L0.0950317 6.97516C0.0787817 7.18641 0.0625 7.41375 0.0625 7.625V17.375C0.0625 21.405 3.345 24.6875 7.375 24.6875H23.625C27.655 24.6875 30.9375 21.405 30.9375 17.375V7.625C30.9375 7.41375 30.9212 7.18641 30.905 6.97516Z" fill="white"/>
</svg>
