<svg width="151" height="603" viewBox="0 0 151 603" fill="none" xmlns="http://www.w3.org/2000/svg">
<path d="M84.8422 568.721C98.2275 597.932 132.763 610.758 161.977 597.369C165.003 595.984 167.841 594.36 170.504 592.549C179.533 587.971 275.969 520.336 340.088 563.469C371.283 583.515 411.707 587.769 447.924 571.174C479.781 556.575 501.563 528.977 509.873 497.555L530.425 435.068C539.73 404.734 558.113 377.98 583.097 358.412L656.433 300.975C661.451 297.48 666.222 293.732 670.753 289.763L670.93 289.624L670.922 289.614C724.295 242.726 743.104 164.711 711.994 96.8203C674.009 13.9323 576.015 -22.4644 493.114 15.5274C484.876 19.3027 477.103 23.6796 469.811 28.5685L390.605 72.8892C347.227 97.1623 294.837 99.1812 249.721 78.3295C237.617 72.7365 222.446 63.7731 220.143 61.8002C220.126 61.7852 220.062 61.8098 220.028 61.8111C180.763 34.8549 128.734 28.5952 82.2816 49.8829C11.9548 82.1123 -18.935 165.243 13.2864 235.558C13.7269 236.517 83.5069 374.981 83.5069 374.981C83.6067 375.183 83.7066 375.384 83.8049 375.587C100.14 408.792 103.768 446.832 94.3759 482.629L82.0541 527.665C78.0907 540.764 78.6935 555.303 84.8422 568.721Z" fill="url(#paint0_linear_121_626)"/>
<defs>
<linearGradient id="paint0_linear_121_626" x1="8.89901" y1="519.7" x2="441.728" y2="-89.8872" gradientUnits="userSpaceOnUse">
<stop stop-color="#FAA277"/>
<stop offset="1" stop-color="#FD651B"/>
</linearGradient>
</defs>
</svg>
