<svg width="21" height="27" viewBox="0 0 21 27" fill="none" xmlns="http://www.w3.org/2000/svg">
<path d="M20.8125 10.75C20.8125 19.11 14.3913 24.3487 11.6413 26.205C11.2975 26.4525 10.8988 26.5625 10.5 26.5625C10.1012 26.5625 9.70251 26.4525 9.34501 26.205C6.59501 24.3487 0.1875 19.1238 0.1875 10.75C0.1875 4.865 4.615 0.4375 10.5 0.4375C16.3713 0.4375 20.8125 4.865 20.8125 10.75ZM16 10.75C16 7.71125 13.5387 5.25 10.5 5.25C7.46125 5.25 5 7.71125 5 10.75C5 13.7887 7.46125 16.25 10.5 16.25C13.5387 16.25 16 13.7887 16 10.75Z" fill="white"/>
</svg>
