<svg width="165" height="722" viewBox="0 0 165 722" fill="none" xmlns="http://www.w3.org/2000/svg">
<path d="M514.464 710.961C545.695 703.401 564.881 671.951 557.319 640.718C556.537 637.483 555.485 634.387 554.216 631.427C551.447 621.69 503.476 514.111 558.061 459.411C583.696 432.619 595.593 393.752 586.221 355.032C577.976 320.973 555.046 294.321 525.79 280.162L468.378 248.054C440.381 233.126 417.63 209.972 403.195 181.71L360.822 98.7538C358.349 93.1605 355.582 87.761 352.551 82.5556L352.448 82.3555L352.437 82.3612C316.607 21.0149 243.621 -12.3482 171.038 5.22159C82.4206 26.6758 27.9771 115.914 49.4355 204.545C51.5678 213.352 54.3794 221.819 57.7855 229.911L86.162 316.123C101.703 363.339 93.6782 415.15 64.5933 455.453C56.7914 466.266 45.0953 479.445 42.7188 481.329C42.7009 481.343 42.7129 481.41 42.7075 481.444C8.74799 514.838 -7.33387 564.713 4.68945 614.376C22.8931 689.564 98.593 735.763 173.768 717.565C174.794 717.316 324.037 675.267 324.037 675.267C324.254 675.208 324.47 675.148 324.688 675.09C360.402 665.399 398.435 669.102 431.778 685.159L473.633 705.856C485.733 712.248 500.119 714.433 514.464 710.961Z" fill="url(#paint0_linear_105_1502)"/>
<defs>
<linearGradient id="paint0_linear_105_1502" x1="451.841" y1="776.143" x2="-63.8533" y2="234.852" gradientUnits="userSpaceOnUse">
<stop stop-color="#FAA277"/>
<stop offset="1" stop-color="#FD651B"/>
</linearGradient>
</defs>
</svg>
