<svg width="208" height="631" viewBox="0 0 208 631" fill="none" xmlns="http://www.w3.org/2000/svg">
<path d="M207.779 166.739C209.026 134.631 184.003 107.592 151.891 106.348C148.566 106.217 145.3 106.385 142.106 106.799C131.983 106.806 15.3982 123.61 -22.3364 56.1728C-41.1189 24.2011 -75.2665 2.15219 -115.074 0.606358C-150.091 -0.752561 -181.987 14.0367 -203.59 38.3213L-250.142 84.7957C-272.142 107.659 -300.624 123.23 -331.752 129.409L-423.121 147.543C-429.177 148.396 -435.126 149.586 -440.961 151.082L-441.182 151.126L-441.179 151.138C-509.973 168.875 -561.981 229.99 -564.879 304.614C-568.413 395.722 -497.412 472.445 -406.289 475.979C-397.234 476.33 -388.322 475.935 -379.607 474.866L-288.924 471.084C-239.259 469.013 -191.602 490.868 -160.763 529.844C-152.488 540.3 -142.999 555.148 -141.835 557.948C-141.827 557.969 -141.759 557.976 -141.728 557.99C-118.865 599.771 -75.2686 628.849 -24.2088 630.83C53.0932 633.828 118.191 573.603 121.191 496.315C121.231 495.26 121.491 340.207 121.491 340.207C121.493 339.982 121.495 339.757 121.498 339.532C121.917 302.529 135.856 266.948 160.399 239.25L191.729 204.629C201.18 194.731 207.207 181.487 207.779 166.739Z" fill="url(#paint0_linear_105_1501)"/>
<defs>
<linearGradient id="paint0_linear_105_1501" x1="432.437" y1="196" x2="-160.883" y2="663.933" gradientUnits="userSpaceOnUse">
<stop stop-color="#FE5300"/>
<stop offset="1" stop-color="#FAA277"/>
</linearGradient>
</defs>
</svg>
