<svg width="28" height="28" viewBox="0 0 28 28" fill="none" xmlns="http://www.w3.org/2000/svg">
<path d="M26.5121 25.807C25.3006 27.2071 23.5689 28 21.7356 28C21.6781 28 21.6207 28 21.5632 27.9986C9.79093 27.6788 0.319191 18.207 0.00233614 6.43635C-0.0492448 4.52493 0.755432 2.71368 2.20854 1.46397C3.58944 0.274669 5.3874 -0.22184 7.1441 0.0920629C7.41379 0.140696 7.64517 0.20244 7.84265 0.267283C8.62079 0.525185 9.1867 1.19895 9.31639 2.02129L10.3039 8.29181C10.4277 9.07731 10.1211 9.87332 9.50655 10.3714C9.38275 10.4716 9.2545 10.5673 9.12039 10.6557C8.77848 10.8885 8.64879 11.285 8.80206 11.6372C10.2787 15.0341 12.961 17.7162 16.3565 19.1929C16.7102 19.3477 17.1066 19.2151 17.3453 18.8659C17.4146 18.7656 17.4868 18.6669 17.5605 18.5726C18.0557 17.9419 18.8677 17.6381 19.6695 17.7663L26.0537 18.8292C26.8966 18.9706 27.582 19.5674 27.8016 20.3515C27.8414 20.4944 27.8797 20.6566 27.9121 20.8408C28.2201 22.6107 27.7102 24.4188 26.5121 25.807Z" fill="white"/>
</svg>
