<svg width="662" height="618" viewBox="0 0 662 618" fill="none" xmlns="http://www.w3.org/2000/svg">
<path d="M754.185 130.74C751.934 98.6867 724.12 74.5288 692.063 76.7823C688.743 77.014 685.515 77.5358 682.385 78.2939C672.323 79.4017 558.255 108.779 513.414 45.8434C491.267 16.1028 454.925 -2.10354 415.185 0.686988C380.228 3.1425 350.129 21.3112 331.294 47.8002L290.069 99.0596C270.686 124.179 244.064 142.754 213.793 152.279L124.936 180.238C119.009 181.745 113.224 183.574 107.587 185.695L107.372 185.763L107.376 185.775C40.9174 210.884 -4.13916 277.291 1.09238 351.787C7.48263 442.74 86.4032 511.291 177.371 504.898C186.41 504.263 195.226 502.902 203.773 500.891L293.508 487.275C342.653 479.817 392.403 496.362 427.297 531.755C436.659 541.249 447.705 554.978 449.167 557.635C449.178 557.655 449.246 557.654 449.279 557.665C476.548 596.714 523.046 620.88 574.019 617.299C651.189 611.876 709.354 544.932 703.935 467.775C703.86 466.723 687.264 312.56 687.264 312.56C687.241 312.336 687.219 312.112 687.198 311.888C683.591 275.059 693.58 238.174 714.968 207.972L742.348 170.151C750.667 159.284 755.219 145.463 754.185 130.74Z" fill="url(#paint0_linear_105_1434)"/>
<defs>
<linearGradient id="paint0_linear_105_1434" x1="808.022" y1="203.348" x2="401.486" y2="618.501" gradientUnits="userSpaceOnUse">
<stop offset="0.04" stop-color="#FAA277"/>
<stop offset="0.975" stop-color="#FE732F"/>
</linearGradient>
</defs>
</svg>
